<svg xmlns="http://www.w3.org/2000/svg" xmlns:xlink="http://www.w3.org/1999/xlink" width="800" zoomAndPan="magnify" viewBox="0 0 600 179.999997" height="240" preserveAspectRatio="xMidYMid meet" version="1.0"><defs><filter x="0%" y="0%" width="100%" height="100%" id="id1"><feColorMatrix values="0 0 0 0 1 0 0 0 0 1 0 0 0 0 1 0 0 0 1 0" color-interpolation-filters="sRGB"/></filter><g/><mask id="id2"><g filter="url(#id1)"><rect x="-60" width="720" fill="#000000" y="-18" height="215.999996" fill-opacity="0.2863"/></g></mask><clipPath id="id3"><path d="M 0.359375 0.320312 L 110 0.320312 L 110 129.777344 L 0.359375 129.777344 Z M 0.359375 0.320312 " clip-rule="nonzero"/></clipPath><clipPath id="id4"><rect x="0" width="111" y="0" height="131"/></clipPath><clipPath id="id5"><path d="M 23 27 L 133 27 L 133 156.59375 L 23 156.59375 Z M 23 27 " clip-rule="nonzero"/></clipPath></defs><g fill="#2666ce" fill-opacity="0.302"><g transform="translate(163.081945, 145.011788)"><g><path d="M 48.515625 1.640625 C 42.546875 1.640625 36.9375 0.453125 31.6875 -1.921875 C 26.4375 -4.296875 21.816406 -7.582031 17.828125 -11.78125 C 13.835938 -15.976562 10.707031 -20.835938 8.4375 -26.359375 C 6.175781 -31.890625 5.046875 -37.800781 5.046875 -44.09375 C 5.046875 -50.394531 6.175781 -56.304688 8.4375 -61.828125 C 10.707031 -67.359375 13.835938 -72.222656 17.828125 -76.421875 C 21.816406 -80.617188 26.4375 -83.90625 31.6875 -86.28125 C 36.9375 -88.65625 42.546875 -89.84375 48.515625 -89.84375 C 54.515625 -89.84375 60.140625 -88.65625 65.390625 -86.28125 C 70.640625 -83.90625 75.257812 -80.617188 79.25 -76.421875 C 83.238281 -72.222656 86.359375 -67.359375 88.609375 -61.828125 C 90.859375 -56.304688 91.984375 -50.394531 91.984375 -44.09375 C 91.984375 -37.800781 90.859375 -31.890625 88.609375 -26.359375 C 86.359375 -20.835938 83.238281 -15.976562 79.25 -11.78125 C 75.257812 -7.582031 70.640625 -4.296875 65.390625 -1.921875 C 60.140625 0.453125 54.515625 1.640625 48.515625 1.640625 Z M 48.515625 -8.953125 C 53.085938 -8.953125 57.359375 -9.875 61.328125 -11.71875 C 65.296875 -13.5625 68.78125 -16.109375 71.78125 -19.359375 C 74.789062 -22.617188 77.144531 -26.359375 78.84375 -30.578125 C 80.539062 -34.804688 81.390625 -39.3125 81.390625 -44.09375 C 81.390625 -48.925781 80.539062 -53.460938 78.84375 -57.703125 C 77.144531 -61.953125 74.78125 -65.691406 71.75 -68.921875 C 68.726562 -72.148438 65.234375 -74.675781 61.265625 -76.5 C 57.296875 -78.332031 53.046875 -79.25 48.515625 -79.25 C 43.929688 -79.25 39.65625 -78.320312 35.6875 -76.46875 C 31.71875 -74.625 28.234375 -72.070312 25.234375 -68.8125 C 22.234375 -65.5625 19.878906 -61.828125 18.171875 -57.609375 C 16.472656 -53.390625 15.625 -48.882812 15.625 -44.09375 C 15.625 -39.269531 16.472656 -34.734375 18.171875 -30.484375 C 19.878906 -26.242188 22.242188 -22.503906 25.265625 -19.265625 C 28.285156 -16.035156 31.78125 -13.507812 35.75 -11.6875 C 39.71875 -9.863281 43.972656 -8.953125 48.515625 -8.953125 Z M 48.515625 -8.953125 "/></g></g></g><g fill="#2666ce" fill-opacity="0.302"><g transform="translate(260.092978, 145.011788)"><g><path d="M 40.1875 -52.421875 L 25.890625 -52.421875 L 25.828125 0 L 15.25 0 L 15.3125 -52.421875 L 4.46875 -52.421875 L 4.46875 -63 L 15.3125 -63 L 15.25 -82.78125 L 25.828125 -82.78125 L 25.890625 -63 L 40.1875 -63 Z M 40.1875 -52.421875 "/></g></g></g><g fill="#2666ce" fill-opacity="0.302"><g transform="translate(303.999916, 145.011788)"><g><path d="M 35.28125 1.640625 C 29.488281 1.640625 24.207031 0.148438 19.4375 -2.828125 C 14.664062 -5.816406 10.863281 -9.816406 8.03125 -14.828125 C 5.195312 -19.847656 3.78125 -25.40625 3.78125 -31.5 C 3.78125 -37.632812 5.195312 -43.21875 8.03125 -48.25 C 10.863281 -53.289062 14.664062 -57.300781 19.4375 -60.28125 C 24.207031 -63.269531 29.488281 -64.765625 35.28125 -64.765625 C 41.582031 -64.765625 47.175781 -63.101562 52.0625 -59.78125 C 56.957031 -56.46875 60.707031 -51.992188 63.3125 -46.359375 C 65.914062 -40.734375 66.96875 -34.5 66.46875 -27.65625 L 15.0625 -27.65625 C 15.8125 -22.320312 18.046875 -17.878906 21.765625 -14.328125 C 25.484375 -10.785156 29.988281 -8.992188 35.28125 -8.953125 C 39.0625 -8.953125 42.484375 -9.914062 45.546875 -11.84375 C 48.609375 -13.769531 51.085938 -16.457031 52.984375 -19.90625 L 63.75 -17.390625 C 61.226562 -11.804688 57.425781 -7.238281 52.34375 -3.6875 C 47.269531 -0.132812 41.582031 1.640625 35.28125 1.640625 Z M 14.734375 -35.96875 L 55.8125 -35.96875 C 55.4375 -39.5 54.289062 -42.722656 52.375 -45.640625 C 50.46875 -48.554688 48.023438 -50.894531 45.046875 -52.65625 C 42.066406 -54.425781 38.8125 -55.3125 35.28125 -55.3125 C 31.707031 -55.3125 28.460938 -54.445312 25.546875 -52.71875 C 22.628906 -51 20.210938 -48.679688 18.296875 -45.765625 C 16.390625 -42.847656 15.203125 -39.582031 14.734375 -35.96875 Z M 14.734375 -35.96875 "/></g></g></g><g fill="#2666ce" fill-opacity="0.302"><g transform="translate(374.490402, 145.011788)"><g><path d="M 64.140625 -33.515625 L 64.140625 0 L 53.546875 0 L 53.546875 -33.265625 C 53.546875 -37.171875 52.726562 -40.726562 51.09375 -43.9375 C 49.457031 -47.15625 47.226562 -49.71875 44.40625 -51.625 C 41.59375 -53.539062 38.425781 -54.5 34.90625 -54.5 C 31.414062 -54.5 28.316406 -53.539062 25.609375 -51.625 C 22.898438 -49.71875 20.769531 -47.15625 19.21875 -43.9375 C 17.664062 -40.726562 16.890625 -37.171875 16.890625 -33.265625 L 16.890625 0 L 6.296875 0 L 6.296875 -63 L 16.890625 -63 L 16.890625 -53.296875 C 19.191406 -56.867188 22 -59.671875 25.3125 -61.703125 C 28.632812 -63.742188 32.359375 -64.765625 36.484375 -64.765625 C 41.941406 -64.765625 46.738281 -63.335938 50.875 -60.484375 C 55.007812 -57.628906 58.234375 -53.835938 60.546875 -49.109375 C 62.859375 -44.378906 64.054688 -39.179688 64.140625 -33.515625 Z M 64.140625 -33.515625 "/></g></g></g><g fill="#2666ce" fill-opacity="0.302"><g transform="translate(444.917888, 145.011788)"><g><path d="M 40.1875 -52.421875 L 25.890625 -52.421875 L 25.828125 0 L 15.25 0 L 15.3125 -52.421875 L 4.46875 -52.421875 L 4.46875 -63 L 15.3125 -63 L 15.25 -82.78125 L 25.828125 -82.78125 L 25.890625 -63 L 40.1875 -63 Z M 40.1875 -52.421875 "/></g></g></g><g fill="#2666ce" fill-opacity="0.302"><g transform="translate(488.824814, 145.011788)"><g><path d="M 7.5625 -63 L 18.140625 -63 L 18.140625 0 L 7.5625 0 Z M 13.0625 -74.53125 C 11.425781 -74.53125 10.039062 -75.0625 8.90625 -76.125 C 7.769531 -77.195312 7.203125 -78.578125 7.203125 -80.265625 C 7.203125 -81.898438 7.769531 -83.265625 8.90625 -84.359375 C 10.039062 -85.453125 11.425781 -86 13.0625 -86 C 14.695312 -86 16.082031 -85.453125 17.21875 -84.359375 C 18.351562 -83.265625 18.921875 -81.898438 18.921875 -80.265625 C 18.921875 -78.578125 18.351562 -77.195312 17.21875 -76.125 C 16.082031 -75.0625 14.695312 -74.53125 13.0625 -74.53125 Z M 13.0625 -74.53125 "/></g></g></g><g fill="#2666ce" fill-opacity="0.302"><g transform="translate(517.991133, 145.011788)"><g><path d="M 59.71875 0 L 47.5 0 L 30.75 -28.921875 L 19.21875 -15.0625 L 19.21875 0 L 8.625 0 L 8.625 -94.5 L 19.21875 -94.5 L 19.21875 -31.5625 L 45.546875 -63 L 59.40625 -63 L 37.984375 -37.484375 Z M 59.71875 0 "/></g></g></g><g fill="#2666ce" fill-opacity="0.502"><g transform="translate(157.513547, 139.44339)"><g><path d="M 48.515625 1.640625 C 42.546875 1.640625 36.9375 0.453125 31.6875 -1.921875 C 26.4375 -4.296875 21.816406 -7.582031 17.828125 -11.78125 C 13.835938 -15.976562 10.707031 -20.835938 8.4375 -26.359375 C 6.175781 -31.890625 5.046875 -37.800781 5.046875 -44.09375 C 5.046875 -50.394531 6.175781 -56.304688 8.4375 -61.828125 C 10.707031 -67.359375 13.835938 -72.222656 17.828125 -76.421875 C 21.816406 -80.617188 26.4375 -83.90625 31.6875 -86.28125 C 36.9375 -88.65625 42.546875 -89.84375 48.515625 -89.84375 C 54.515625 -89.84375 60.140625 -88.65625 65.390625 -86.28125 C 70.640625 -83.90625 75.257812 -80.617188 79.25 -76.421875 C 83.238281 -72.222656 86.359375 -67.359375 88.609375 -61.828125 C 90.859375 -56.304688 91.984375 -50.394531 91.984375 -44.09375 C 91.984375 -37.800781 90.859375 -31.890625 88.609375 -26.359375 C 86.359375 -20.835938 83.238281 -15.976562 79.25 -11.78125 C 75.257812 -7.582031 70.640625 -4.296875 65.390625 -1.921875 C 60.140625 0.453125 54.515625 1.640625 48.515625 1.640625 Z M 48.515625 -8.953125 C 53.085938 -8.953125 57.359375 -9.875 61.328125 -11.71875 C 65.296875 -13.5625 68.78125 -16.109375 71.78125 -19.359375 C 74.789062 -22.617188 77.144531 -26.359375 78.84375 -30.578125 C 80.539062 -34.804688 81.390625 -39.3125 81.390625 -44.09375 C 81.390625 -48.925781 80.539062 -53.460938 78.84375 -57.703125 C 77.144531 -61.953125 74.78125 -65.691406 71.75 -68.921875 C 68.726562 -72.148438 65.234375 -74.675781 61.265625 -76.5 C 57.296875 -78.332031 53.046875 -79.25 48.515625 -79.25 C 43.929688 -79.25 39.65625 -78.320312 35.6875 -76.46875 C 31.71875 -74.625 28.234375 -72.070312 25.234375 -68.8125 C 22.234375 -65.5625 19.878906 -61.828125 18.171875 -57.609375 C 16.472656 -53.390625 15.625 -48.882812 15.625 -44.09375 C 15.625 -39.269531 16.472656 -34.734375 18.171875 -30.484375 C 19.878906 -26.242188 22.242188 -22.503906 25.265625 -19.265625 C 28.285156 -16.035156 31.78125 -13.507812 35.75 -11.6875 C 39.71875 -9.863281 43.972656 -8.953125 48.515625 -8.953125 Z M 48.515625 -8.953125 "/></g></g></g><g fill="#2666ce" fill-opacity="0.502"><g transform="translate(254.52458, 139.44339)"><g><path d="M 40.1875 -52.421875 L 25.890625 -52.421875 L 25.828125 0 L 15.25 0 L 15.3125 -52.421875 L 4.46875 -52.421875 L 4.46875 -63 L 15.3125 -63 L 15.25 -82.78125 L 25.828125 -82.78125 L 25.890625 -63 L 40.1875 -63 Z M 40.1875 -52.421875 "/></g></g></g><g fill="#2666ce" fill-opacity="0.502"><g transform="translate(298.431518, 139.44339)"><g><path d="M 35.28125 1.640625 C 29.488281 1.640625 24.207031 0.148438 19.4375 -2.828125 C 14.664062 -5.816406 10.863281 -9.816406 8.03125 -14.828125 C 5.195312 -19.847656 3.78125 -25.40625 3.78125 -31.5 C 3.78125 -37.632812 5.195312 -43.21875 8.03125 -48.25 C 10.863281 -53.289062 14.664062 -57.300781 19.4375 -60.28125 C 24.207031 -63.269531 29.488281 -64.765625 35.28125 -64.765625 C 41.582031 -64.765625 47.175781 -63.101562 52.0625 -59.78125 C 56.957031 -56.46875 60.707031 -51.992188 63.3125 -46.359375 C 65.914062 -40.734375 66.96875 -34.5 66.46875 -27.65625 L 15.0625 -27.65625 C 15.8125 -22.320312 18.046875 -17.878906 21.765625 -14.328125 C 25.484375 -10.785156 29.988281 -8.992188 35.28125 -8.953125 C 39.0625 -8.953125 42.484375 -9.914062 45.546875 -11.84375 C 48.609375 -13.769531 51.085938 -16.457031 52.984375 -19.90625 L 63.75 -17.390625 C 61.226562 -11.804688 57.425781 -7.238281 52.34375 -3.6875 C 47.269531 -0.132812 41.582031 1.640625 35.28125 1.640625 Z M 14.734375 -35.96875 L 55.8125 -35.96875 C 55.4375 -39.5 54.289062 -42.722656 52.375 -45.640625 C 50.46875 -48.554688 48.023438 -50.894531 45.046875 -52.65625 C 42.066406 -54.425781 38.8125 -55.3125 35.28125 -55.3125 C 31.707031 -55.3125 28.460938 -54.445312 25.546875 -52.71875 C 22.628906 -51 20.210938 -48.679688 18.296875 -45.765625 C 16.390625 -42.847656 15.203125 -39.582031 14.734375 -35.96875 Z M 14.734375 -35.96875 "/></g></g></g><g fill="#2666ce" fill-opacity="0.502"><g transform="translate(368.922004, 139.44339)"><g><path d="M 64.140625 -33.515625 L 64.140625 0 L 53.546875 0 L 53.546875 -33.265625 C 53.546875 -37.171875 52.726562 -40.726562 51.09375 -43.9375 C 49.457031 -47.15625 47.226562 -49.71875 44.40625 -51.625 C 41.59375 -53.539062 38.425781 -54.5 34.90625 -54.5 C 31.414062 -54.5 28.316406 -53.539062 25.609375 -51.625 C 22.898438 -49.71875 20.769531 -47.15625 19.21875 -43.9375 C 17.664062 -40.726562 16.890625 -37.171875 16.890625 -33.265625 L 16.890625 0 L 6.296875 0 L 6.296875 -63 L 16.890625 -63 L 16.890625 -53.296875 C 19.191406 -56.867188 22 -59.671875 25.3125 -61.703125 C 28.632812 -63.742188 32.359375 -64.765625 36.484375 -64.765625 C 41.941406 -64.765625 46.738281 -63.335938 50.875 -60.484375 C 55.007812 -57.628906 58.234375 -53.835938 60.546875 -49.109375 C 62.859375 -44.378906 64.054688 -39.179688 64.140625 -33.515625 Z M 64.140625 -33.515625 "/></g></g></g><g fill="#2666ce" fill-opacity="0.502"><g transform="translate(439.349489, 139.44339)"><g><path d="M 40.1875 -52.421875 L 25.890625 -52.421875 L 25.828125 0 L 15.25 0 L 15.3125 -52.421875 L 4.46875 -52.421875 L 4.46875 -63 L 15.3125 -63 L 15.25 -82.78125 L 25.828125 -82.78125 L 25.890625 -63 L 40.1875 -63 Z M 40.1875 -52.421875 "/></g></g></g><g fill="#2666ce" fill-opacity="0.502"><g transform="translate(483.256416, 139.44339)"><g><path d="M 7.5625 -63 L 18.140625 -63 L 18.140625 0 L 7.5625 0 Z M 13.0625 -74.53125 C 11.425781 -74.53125 10.039062 -75.0625 8.90625 -76.125 C 7.769531 -77.195312 7.203125 -78.578125 7.203125 -80.265625 C 7.203125 -81.898438 7.769531 -83.265625 8.90625 -84.359375 C 10.039062 -85.453125 11.425781 -86 13.0625 -86 C 14.695312 -86 16.082031 -85.453125 17.21875 -84.359375 C 18.351562 -83.265625 18.921875 -81.898438 18.921875 -80.265625 C 18.921875 -78.578125 18.351562 -77.195312 17.21875 -76.125 C 16.082031 -75.0625 14.695312 -74.53125 13.0625 -74.53125 Z M 13.0625 -74.53125 "/></g></g></g><g fill="#2666ce" fill-opacity="0.502"><g transform="translate(512.422735, 139.44339)"><g><path d="M 59.71875 0 L 47.5 0 L 30.75 -28.921875 L 19.21875 -15.0625 L 19.21875 0 L 8.625 0 L 8.625 -94.5 L 19.21875 -94.5 L 19.21875 -31.5625 L 45.546875 -63 L 59.40625 -63 L 37.984375 -37.484375 Z M 59.71875 0 "/></g></g></g><g fill="#2b5adc" fill-opacity="1"><g transform="translate(151.945148, 133.874992)"><g><path d="M 48.515625 1.640625 C 42.546875 1.640625 36.9375 0.453125 31.6875 -1.921875 C 26.4375 -4.296875 21.816406 -7.582031 17.828125 -11.78125 C 13.835938 -15.976562 10.707031 -20.835938 8.4375 -26.359375 C 6.175781 -31.890625 5.046875 -37.800781 5.046875 -44.09375 C 5.046875 -50.394531 6.175781 -56.304688 8.4375 -61.828125 C 10.707031 -67.359375 13.835938 -72.222656 17.828125 -76.421875 C 21.816406 -80.617188 26.4375 -83.90625 31.6875 -86.28125 C 36.9375 -88.65625 42.546875 -89.84375 48.515625 -89.84375 C 54.515625 -89.84375 60.140625 -88.65625 65.390625 -86.28125 C 70.640625 -83.90625 75.257812 -80.617188 79.25 -76.421875 C 83.238281 -72.222656 86.359375 -67.359375 88.609375 -61.828125 C 90.859375 -56.304688 91.984375 -50.394531 91.984375 -44.09375 C 91.984375 -37.800781 90.859375 -31.890625 88.609375 -26.359375 C 86.359375 -20.835938 83.238281 -15.976562 79.25 -11.78125 C 75.257812 -7.582031 70.640625 -4.296875 65.390625 -1.921875 C 60.140625 0.453125 54.515625 1.640625 48.515625 1.640625 Z M 48.515625 -8.953125 C 53.085938 -8.953125 57.359375 -9.875 61.328125 -11.71875 C 65.296875 -13.5625 68.78125 -16.109375 71.78125 -19.359375 C 74.789062 -22.617188 77.144531 -26.359375 78.84375 -30.578125 C 80.539062 -34.804688 81.390625 -39.3125 81.390625 -44.09375 C 81.390625 -48.925781 80.539062 -53.460938 78.84375 -57.703125 C 77.144531 -61.953125 74.78125 -65.691406 71.75 -68.921875 C 68.726562 -72.148438 65.234375 -74.675781 61.265625 -76.5 C 57.296875 -78.332031 53.046875 -79.25 48.515625 -79.25 C 43.929688 -79.25 39.65625 -78.320312 35.6875 -76.46875 C 31.71875 -74.625 28.234375 -72.070312 25.234375 -68.8125 C 22.234375 -65.5625 19.878906 -61.828125 18.171875 -57.609375 C 16.472656 -53.390625 15.625 -48.882812 15.625 -44.09375 C 15.625 -39.269531 16.472656 -34.734375 18.171875 -30.484375 C 19.878906 -26.242188 22.242188 -22.503906 25.265625 -19.265625 C 28.285156 -16.035156 31.78125 -13.507812 35.75 -11.6875 C 39.71875 -9.863281 43.972656 -8.953125 48.515625 -8.953125 Z M 48.515625 -8.953125 "/></g></g></g><g fill="#2b5adc" fill-opacity="1"><g transform="translate(248.956182, 133.874992)"><g><path d="M 40.1875 -52.421875 L 25.890625 -52.421875 L 25.828125 0 L 15.25 0 L 15.3125 -52.421875 L 4.46875 -52.421875 L 4.46875 -63 L 15.3125 -63 L 15.25 -82.78125 L 25.828125 -82.78125 L 25.890625 -63 L 40.1875 -63 Z M 40.1875 -52.421875 "/></g></g></g><g fill="#2b5adc" fill-opacity="1"><g transform="translate(292.86312, 133.874992)"><g><path d="M 35.28125 1.640625 C 29.488281 1.640625 24.207031 0.148438 19.4375 -2.828125 C 14.664062 -5.816406 10.863281 -9.816406 8.03125 -14.828125 C 5.195312 -19.847656 3.78125 -25.40625 3.78125 -31.5 C 3.78125 -37.632812 5.195312 -43.21875 8.03125 -48.25 C 10.863281 -53.289062 14.664062 -57.300781 19.4375 -60.28125 C 24.207031 -63.269531 29.488281 -64.765625 35.28125 -64.765625 C 41.582031 -64.765625 47.175781 -63.101562 52.0625 -59.78125 C 56.957031 -56.46875 60.707031 -51.992188 63.3125 -46.359375 C 65.914062 -40.734375 66.96875 -34.5 66.46875 -27.65625 L 15.0625 -27.65625 C 15.8125 -22.320312 18.046875 -17.878906 21.765625 -14.328125 C 25.484375 -10.785156 29.988281 -8.992188 35.28125 -8.953125 C 39.0625 -8.953125 42.484375 -9.914062 45.546875 -11.84375 C 48.609375 -13.769531 51.085938 -16.457031 52.984375 -19.90625 L 63.75 -17.390625 C 61.226562 -11.804688 57.425781 -7.238281 52.34375 -3.6875 C 47.269531 -0.132812 41.582031 1.640625 35.28125 1.640625 Z M 14.734375 -35.96875 L 55.8125 -35.96875 C 55.4375 -39.5 54.289062 -42.722656 52.375 -45.640625 C 50.46875 -48.554688 48.023438 -50.894531 45.046875 -52.65625 C 42.066406 -54.425781 38.8125 -55.3125 35.28125 -55.3125 C 31.707031 -55.3125 28.460938 -54.445312 25.546875 -52.71875 C 22.628906 -51 20.210938 -48.679688 18.296875 -45.765625 C 16.390625 -42.847656 15.203125 -39.582031 14.734375 -35.96875 Z M 14.734375 -35.96875 "/></g></g></g><g fill="#2b5adc" fill-opacity="1"><g transform="translate(363.353606, 133.874992)"><g><path d="M 64.140625 -33.515625 L 64.140625 0 L 53.546875 0 L 53.546875 -33.265625 C 53.546875 -37.171875 52.726562 -40.726562 51.09375 -43.9375 C 49.457031 -47.15625 47.226562 -49.71875 44.40625 -51.625 C 41.59375 -53.539062 38.425781 -54.5 34.90625 -54.5 C 31.414062 -54.5 28.316406 -53.539062 25.609375 -51.625 C 22.898438 -49.71875 20.769531 -47.15625 19.21875 -43.9375 C 17.664062 -40.726562 16.890625 -37.171875 16.890625 -33.265625 L 16.890625 0 L 6.296875 0 L 6.296875 -63 L 16.890625 -63 L 16.890625 -53.296875 C 19.191406 -56.867188 22 -59.671875 25.3125 -61.703125 C 28.632812 -63.742188 32.359375 -64.765625 36.484375 -64.765625 C 41.941406 -64.765625 46.738281 -63.335938 50.875 -60.484375 C 55.007812 -57.628906 58.234375 -53.835938 60.546875 -49.109375 C 62.859375 -44.378906 64.054688 -39.179688 64.140625 -33.515625 Z M 64.140625 -33.515625 "/></g></g></g><g fill="#2b5adc" fill-opacity="1"><g transform="translate(433.781091, 133.874992)"><g><path d="M 40.1875 -52.421875 L 25.890625 -52.421875 L 25.828125 0 L 15.25 0 L 15.3125 -52.421875 L 4.46875 -52.421875 L 4.46875 -63 L 15.3125 -63 L 15.25 -82.78125 L 25.828125 -82.78125 L 25.890625 -63 L 40.1875 -63 Z M 40.1875 -52.421875 "/></g></g></g><g fill="#2b5adc" fill-opacity="1"><g transform="translate(477.688018, 133.874992)"><g><path d="M 7.5625 -63 L 18.140625 -63 L 18.140625 0 L 7.5625 0 Z M 13.0625 -74.53125 C 11.425781 -74.53125 10.039062 -75.0625 8.90625 -76.125 C 7.769531 -77.195312 7.203125 -78.578125 7.203125 -80.265625 C 7.203125 -81.898438 7.769531 -83.265625 8.90625 -84.359375 C 10.039062 -85.453125 11.425781 -86 13.0625 -86 C 14.695312 -86 16.082031 -85.453125 17.21875 -84.359375 C 18.351562 -83.265625 18.921875 -81.898438 18.921875 -80.265625 C 18.921875 -78.578125 18.351562 -77.195312 17.21875 -76.125 C 16.082031 -75.0625 14.695312 -74.53125 13.0625 -74.53125 Z M 13.0625 -74.53125 "/></g></g></g><g fill="#2b5adc" fill-opacity="1"><g transform="translate(506.854337, 133.874992)"><g><path d="M 59.71875 0 L 47.5 0 L 30.75 -28.921875 L 19.21875 -15.0625 L 19.21875 0 L 8.625 0 L 8.625 -94.5 L 19.21875 -94.5 L 19.21875 -31.5625 L 45.546875 -63 L 59.40625 -63 L 37.984375 -37.484375 Z M 59.71875 0 "/></g></g></g><g mask="url(#id2)"><g transform="matrix(1, 0, 0, 1, 27, 28)"><g clip-path="url(#id4)"><g clip-path="url(#id3)"><path fill="#2b5adc" d="M 94.28125 16.953125 C 72.933594 -4.367188 38.242188 -4.453125 16.78125 16.707031 L 16.53125 16.957031 C -4.894531 38.367188 -4.886719 73.195312 16.542969 94.59375 L 49.648438 127.648438 C 51.089844 129.089844 52.984375 129.808594 54.875 129.808594 C 56.769531 129.808594 58.667969 129.089844 60.109375 127.648438 C 63 124.761719 63 120.082031 60.109375 117.195312 L 27.003906 84.136719 C 11.390625 68.546875 11.339844 43.199219 26.859375 27.542969 L 27.011719 27.398438 C 42.675781 11.761719 68.160156 11.765625 83.8125 27.402344 C 96.671875 40.242188 98.515625 62.214844 88.101562 78.519531 C 85.902344 81.957031 86.914062 86.523438 90.359375 88.71875 C 93.808594 90.925781 98.375 89.910156 100.574219 86.46875 C 114.871094 64.101562 112.222656 34.867188 94.28125 16.953125 M 81.035156 96.289062 C 83.921875 99.171875 83.925781 103.855469 81.035156 106.738281 C 79.597656 108.183594 77.703125 108.90625 75.808594 108.90625 C 73.910156 108.90625 72.015625 108.183594 70.570312 106.742188 L 37.46875 73.6875 C 27.578125 63.808594 27.578125 47.734375 37.46875 37.851562 C 42.261719 33.070312 48.632812 30.433594 55.40625 30.433594 L 55.414062 30.433594 C 62.1875 30.433594 68.558594 33.074219 73.347656 37.863281 C 79.941406 44.449219 82.386719 54.097656 79.710938 63.042969 C 78.539062 66.953125 74.421875 69.175781 70.503906 68.007812 C 66.589844 66.839844 64.363281 62.722656 65.527344 58.808594 C 66.644531 55.082031 65.628906 51.058594 62.878906 48.3125 C 60.882812 46.3125 58.230469 45.21875 55.410156 45.214844 L 55.40625 45.214844 C 52.578125 45.214844 49.933594 46.3125 47.933594 48.304688 C 43.8125 52.417969 43.8125 59.121094 47.933594 63.234375 L 81.035156 96.289062 " fill-opacity="1" fill-rule="nonzero"/></g></g></g></g><g clip-path="url(#id5)"><path fill="#2b5adc" d="M 117.300781 43.769531 C 95.953125 22.445312 61.261719 22.359375 39.804688 43.523438 L 39.554688 43.773438 C 18.128906 65.183594 18.132812 100.007812 39.566406 121.410156 L 72.667969 154.464844 C 74.109375 155.90625 76.007812 156.625 77.898438 156.625 C 79.792969 156.625 81.6875 155.90625 83.132812 154.464844 C 86.019531 151.578125 86.019531 146.894531 83.132812 144.011719 L 50.027344 110.953125 C 34.414062 95.363281 34.363281 70.015625 49.878906 54.359375 L 50.03125 54.210938 C 65.695312 38.578125 91.183594 38.582031 106.835938 54.21875 C 119.691406 67.058594 121.539062 89.03125 111.121094 105.332031 C 108.921875 108.773438 109.933594 113.339844 113.378906 115.535156 C 116.828125 117.738281 121.398438 116.726562 123.59375 113.285156 C 137.890625 90.914062 135.246094 61.683594 117.304688 43.769531 M 104.058594 123.101562 C 106.941406 125.988281 106.945312 130.671875 104.058594 133.550781 C 102.617188 134.996094 100.722656 135.722656 98.832031 135.722656 C 96.933594 135.722656 95.035156 134.996094 93.589844 133.554688 L 60.488281 100.503906 C 50.601562 90.625 50.601562 74.546875 60.488281 64.667969 C 65.28125 59.886719 71.652344 57.25 78.425781 57.25 L 78.4375 57.25 C 85.210938 57.25 91.578125 59.890625 96.367188 64.679688 C 102.964844 71.265625 105.410156 80.914062 102.734375 89.859375 C 101.558594 93.765625 97.445312 95.992188 93.527344 94.824219 C 89.613281 93.65625 87.382812 89.539062 88.546875 85.625 C 89.667969 81.898438 88.652344 77.875 85.902344 75.128906 C 83.902344 73.128906 81.253906 72.03125 78.429688 72.027344 L 78.425781 72.027344 C 75.601562 72.027344 72.953125 73.128906 70.957031 75.121094 C 66.832031 79.234375 66.832031 85.9375 70.957031 90.050781 L 104.058594 123.101562 " fill-opacity="1" fill-rule="nonzero"/></g></svg>