<svg xmlns="http://www.w3.org/2000/svg" xmlns:xlink="http://www.w3.org/1999/xlink" width="256" zoomAndPan="magnify" viewBox="0 0 192 191.999996" height="256" preserveAspectRatio="xMidYMid meet" version="1.0"><defs><clipPath id="id1"><path d="M 21 8 L 171 8 L 171 185.183594 L 21 185.183594 Z M 21 8 " clip-rule="nonzero"/></clipPath></defs><g clip-path="url(#id1)"><path fill="#2b5adc" d="M 149.667969 30.492188 C 120.449219 1.191406 72.964844 1.074219 43.59375 30.15625 L 43.25 30.5 C 13.921875 59.921875 13.933594 107.785156 43.265625 137.199219 L 88.574219 182.621094 C 90.550781 184.601562 93.144531 185.59375 95.734375 185.59375 C 98.328125 185.59375 100.921875 184.601562 102.898438 182.621094 C 106.851562 178.65625 106.851562 172.222656 102.898438 168.257812 L 57.582031 122.824219 C 36.214844 101.398438 36.144531 66.566406 57.382812 45.046875 L 57.59375 44.847656 C 79.035156 23.359375 113.917969 23.363281 135.34375 44.851562 C 152.941406 62.5 155.464844 92.699219 141.207031 115.101562 C 138.199219 119.832031 139.585938 126.105469 144.300781 129.125 C 149.019531 132.152344 155.273438 130.757812 158.28125 126.03125 C 177.847656 95.289062 174.226562 55.113281 149.667969 30.492188 M 131.539062 139.523438 C 135.488281 143.488281 135.496094 149.921875 131.539062 153.882812 C 129.570312 155.871094 126.976562 156.867188 124.386719 156.867188 C 121.785156 156.867188 119.191406 155.871094 117.210938 153.890625 L 71.90625 108.464844 C 58.371094 94.890625 58.371094 72.792969 71.90625 59.214844 C 78.464844 52.644531 87.1875 49.023438 96.457031 49.023438 L 96.46875 49.023438 C 105.742188 49.023438 114.460938 52.648438 121.015625 59.230469 C 130.042969 68.285156 133.390625 81.542969 129.726562 93.835938 C 128.121094 99.207031 122.488281 102.265625 117.125 100.660156 C 111.765625 99.054688 108.714844 93.394531 110.3125 88.015625 C 111.84375 82.894531 110.453125 77.363281 106.6875 73.589844 C 103.953125 70.84375 100.328125 69.339844 96.464844 69.332031 L 96.457031 69.332031 C 92.589844 69.332031 88.96875 70.84375 86.234375 73.578125 C 80.589844 79.234375 80.589844 88.445312 86.234375 94.097656 L 131.539062 139.523438 " fill-opacity="1" fill-rule="nonzero"/></g></svg>
